<?xml version="1.0" standalone="no"?>
<!DOCTYPE svg PUBLIC "-//W3C//DTD SVG 20010904//EN"
 "http://www.w3.org/TR/2001/REC-SVG-20010904/DTD/svg10.dtd">
<svg version="1.0" xmlns="http://www.w3.org/2000/svg"
 width="1280.000000pt" height="1280.000000pt" viewBox="0 0 1280.000000 1280.000000"
 preserveAspectRatio="xMidYMid meet">
<metadata>
Created by potrace 1.15, written by Peter Selinger 2001-2017
</metadata>
<g transform="translate(0.000000,1280.000000) scale(0.100000,-0.100000)"
fill="#000000" stroke="none">
<path d="M5895 12774 c-1534 -127 -2933 -773 -4013 -1853 -1005 -1005 -1638
-2288 -1821 -3691 -69 -526 -70 -1125 -1 -1659 237 -1849 1285 -3511 2865
-4539 785 -511 1695 -847 2632 -971 534 -71 1152 -71 1686 0 1853 245 3498
1286 4525 2864 457 701 782 1523 927 2345 130 739 130 1521 0 2256 -331 1866
-1490 3501 -3150 4441 -819 464 -1700 731 -2660 808 -233 18 -761 18 -990 -1z"/>
</g>
</svg>
